<?xml version="1.0" encoding="utf-8"?>
<!-- Generator: Adobe Illustrator 19.0.0, SVG Export Plug-In . SVG Version: 6.00 Build 0)  -->
<svg width="8rem" version="1.1" id="Layer_1" xmlns="http://www.w3.org/2000/svg" xmlns:xlink="http://www.w3.org/1999/xlink" x="0px" y="0px"
	 viewBox="0 0 612 264" style="enable-background:new 0 0 612 264;" xml:space="preserve">
<style type="text/css">
	.st0{fill:#EBEBEB;}
</style>
<path class="st0" d="M198.3,177.2c-4.3,0-9.1,0-14.3,0c0-11.8,0-23.3,0-34.7c0-2.3,0-4.7-0.1-7c-0.4-8.9-5.1-14.7-12.6-15.6
	c-9.2-1.1-16.6,3.1-19.1,11.5c-0.9,3.1-1.2,6.5-1.2,9.8c-0.1,11.8-0.1,23.6-0.1,35.9c-5,0-9.7,0-15.2,0c0-3.6,0-7.2,0-10.8
	c0-8.8,0-17.7,0-26.5c0-1.7,0-3.3-0.2-5c-1.1-10-6-15.1-14.5-15.1c-10,0-17.5,6-18,15.6c-0.6,11.6-0.4,23.3-0.5,35
	c0,2.1,0,4.3,0,6.8c-5.2,0-9.9,0-15,0c0-23.5,0-46.9,0-70.6c4.8,0,9.5,0,14.6,0c0.2,2.1,0.5,4.2,0.8,6.9c7-6,14.5-9.3,23.4-8.3
	c8.7,0.9,16,4.3,20.8,12.8c6-8.7,13.8-13.1,24-13.1c15,0,25.3,7,26.8,21.9C199.6,143.3,198.3,160.2,198.3,177.2z"/>
<path class="st0" d="M285.9,177.2c-4.8,0-9.6,0-14.5,0c-0.1-2.6-0.3-4.8-0.4-7.8c-8.7,8-18.6,10.9-29.7,9.1
	c-9.1-1.5-16.6-5.7-22.4-12.9c-11.5-14.4-10.4-37,2.1-50.1c10.6-11.1,33.1-16.3,49.8-1.7c0.2-2.5,0.4-4.7,0.7-7.3
	c4.7,0,9.4,0,14.5,0C285.9,130.1,285.9,153.5,285.9,177.2z M271,141.9c0-12.7-9.6-22.2-22.5-22.2c-12.6,0-21.7,9-22,21.6
	c-0.3,12.8,9.3,22.7,22,22.7C261.6,164.1,270.9,154.9,271,141.9z"/>
<path class="st0" d="M390.7,136.7c12.7,13.5,25,26.6,38.4,40.7c-7.3,0-13.3,0.2-19.3-0.1c-1.3-0.1-2.6-1.8-3.8-3
	c-9.3-9.8-18.5-19.6-28.6-30.3c0,11.7,0,22.4,0,33.2c-5.7,0-10.8,0-16,0c0-37.8,0-75.2,0-112.9c5.2,0,10.1,0,15.6,0
	c0,21.3,0,42.5,0,63.7c0.4,0.2,0.8,0.4,1.1,0.6c4.2-4.4,8.8-8.4,12.3-13.2c5.7-7.7,12.7-11.1,22.2-9.4c1.8,0.3,3.6,0,7,0
	C409.5,116.8,400.3,126.6,390.7,136.7z"/>
<path class="st0" d="M443.7,147.7c0.5,14.1,21.9,25.4,38.9,10.3c2.9,3.1,5.9,6.2,8.8,9.3c-6.7,11.1-28.4,15.2-43.2,8.3
	c-16.8-7.8-24.7-27.8-18.5-46.7c5.7-17.3,23.7-27.2,42.3-23.3c19.3,4.1,29.8,19.8,27.6,42.1C481.2,147.7,462.6,147.7,443.7,147.7z
	 M484.3,135.5c-1.1-10.1-8.6-16.6-19.4-16.9c-11.3-0.3-19.9,6.4-21.2,16.9C457.2,135.5,470.8,135.5,484.3,135.5z"/>
<path class="st0" d="M607,125.2c-4.3,0-7.9,0.2-11.5-0.1c-1.2-0.1-2.9-1.2-3.5-2.4c-3.4-6.2-13.4-7.3-17.9-1.9
	c-2.9,3.5-2,8.4,2.4,10.4c3.8,1.7,7.9,2.4,11.8,3.7c3.8,1.2,7.8,2.2,11.2,4.1c13.6,7.5,14,26.1,0.8,34c-11.4,6.9-23.3,7.3-34.9,0.2
	c-6.7-4.1-9.8-10.5-10.2-18.7c4.6,0,8.8,0,13.1,0c4,9.7,11.2,11,18.6,9.8c4.3-0.7,7.6-3,7.9-7.7c0.3-4.7-3.1-6.6-7-7.8
	c-6.5-2-13.4-3.2-19.5-6c-13.9-6.5-15.4-24-3.4-33.1c8.8-6.7,23.1-7.5,32.6-1.6C603.7,111.8,606.8,117.3,607,125.2z"/>
<path class="st0" d="M518.9,119.3c-4.5,0-8.3,0-12.5,0c0-4.4,0-8.5,0-13.1c4,0,7.9,0,12.3,0c0-7.3,0-14.1,0-21.2c5.2,0,9.9,0,15.1,0
	c0,6.9,0,13.7,0,20.9c5,0,9.6,0,14.6,0c0,4.5,0,8.6,0,13.1c-4.7,0-9.3,0-14.4,0c0,19.6,0,38.6,0,58c-5.3,0-10,0-15.1,0
	C518.9,157.9,518.9,139,518.9,119.3z"/>
<path class="st0" d="M317,177.3c-5.7,0-10.6,0-15.8,0c0-23.7,0-47.1,0-70.8c5.2,0,10.1,0,15.4,0c0.2,2.2,0.3,4.5,0.4,5.7
	c5.9-2,11.9-4.8,18.2-5.8c6.5-1,12.6,1.7,18.3,6.4c-3.6,4.4-6.9,8.7-10.6,12.8c-0.6,0.7-2.7,0.8-3.7,0.3c-13.2-5.6-22.1,0-22.3,14.4
	C317,152.6,317,164.7,317,177.3z"/>
<path class="st0" d="M44.4,139.5c1.7-4.2,3.3-8.2,4.9-12.1c10.6,1.9,19.7,10,21.7,19.1c2.4,11-2.1,22.2-11.3,28.4
	c-14.6,10-35.7,7.5-47.4-5.6c-4.4-5-7.1-10.8-6.5-18.1c4.5,0,8.9,0,13.4,0c5.4,13.4,14.3,18.5,26.3,15.2c6.7-1.9,11-6.5,11.4-12.3
	c0.4-5.4-2.7-9.9-9.1-13C46.8,140.6,45.8,140.1,44.4,139.5z"/>
<path class="st0" d="M30,122.1c-1.7,4.2-3.3,8.1-4.9,12c-17.6-4-24.7-24.4-13.6-38.3C24.8,79,54.3,80.1,64.8,98
	c2.4,4.1,3.2,9.2,5,14.6c-5.8,0-10.4,0-13.8,0c-2.9-4.3-4.7-9.1-8.2-11.6c-3.1-2.3-8.1-2.8-12.2-2.8c-7.1,0-13,4.8-14.2,10.5
	C20.1,114.2,22.2,117.6,30,122.1z"/>
<path class="st0" d="M42.8,104.1c5.1,3.8,6.7,8.6,5.1,13c-4.9,13.7-10.7,27.1-16.2,40.6c-5-3-7.2-7.5-5.2-12.9
	C31.5,131.3,37.1,118,42.8,104.1z"/>
<path class="st0" d="M69,65.6c-2.5,6.2-5,12.4-7.7,19c-3-1.5-5.6-2.8-8.8-4.4c2-4.8,3.1-10,6.1-13.9c1.6-2,6.3-1.6,9.6-2.2
	C68.4,64.5,68.7,65,69,65.6z"/>
<path class="st0" d="M5,196.8c2.5-6.2,4.9-12,7.7-19.1c2,4,8.7,2.3,7.1,8.2C16.7,197.7,14.7,199,5,196.8z"/>
</svg>
